<mxfile host="65bd71144e">
    <diagram id="eT-Dx-5zAYCCTuyQzkXm" name="first_version">
        <mxGraphModel dx="1105" dy="413" grid="1" gridSize="10" guides="1" tooltips="1" connect="1" arrows="1" fold="1" page="1" pageScale="1" pageWidth="850" pageHeight="1100" math="0" shadow="0">
            <root>
                <mxCell id="0"/>
                <mxCell id="1" parent="0"/>
                <mxCell id="4" value="&lt;i&gt;DrawPolygons&lt;/i&gt;" style="swimlane;fontStyle=1;align=center;verticalAlign=top;childLayout=stackLayout;horizontal=1;startSize=26;horizontalStack=0;resizeParent=1;resizeParentMax=0;resizeLast=0;collapsible=1;marginBottom=0;fillColor=#FFFFFF;strokeColor=#36393d;fontColor=#000000;html=1;" parent="1" vertex="1">
                    <mxGeometry x="210" y="40" width="160" height="100" as="geometry">
                        <mxRectangle x="210" y="40" width="120" height="26" as="alternateBounds"/>
                    </mxGeometry>
                </mxCell>
                <mxCell id="5" value="+ polygons: Polygon []&#10;+ direction: boolean&#10;+ ticker: int&#10;+ frame: JFrame" style="text;align=left;verticalAlign=top;spacingLeft=4;spacingRight=4;overflow=hidden;rotatable=0;points=[[0,0.5],[1,0.5]];portConstraint=eastwest;fillColor=#FFFFFF;strokeColor=#36393d;fontColor=#000000;" parent="4" vertex="1">
                    <mxGeometry y="26" width="160" height="74" as="geometry"/>
                </mxCell>
                <mxCell id="8" value="Rectangle" style="swimlane;fontStyle=1;align=center;verticalAlign=top;childLayout=stackLayout;horizontal=1;startSize=26;horizontalStack=0;resizeParent=1;resizeParentMax=0;resizeLast=0;collapsible=1;marginBottom=0;" parent="1" vertex="1">
                    <mxGeometry x="210" y="530" width="160" height="60" as="geometry">
                        <mxRectangle x="210" y="530" width="90" height="26" as="alternateBounds"/>
                    </mxGeometry>
                </mxCell>
                <mxCell id="10" value="" style="line;strokeWidth=1;fillColor=none;align=left;verticalAlign=middle;spacingTop=-1;spacingLeft=3;spacingRight=3;rotatable=0;labelPosition=right;points=[];portConstraint=eastwest;" parent="8" vertex="1">
                    <mxGeometry y="26" width="160" height="8" as="geometry"/>
                </mxCell>
                <mxCell id="11" value="+ paint(Graphics): void" style="text;strokeColor=none;fillColor=none;align=left;verticalAlign=top;spacingLeft=4;spacingRight=4;overflow=hidden;rotatable=0;points=[[0,0.5],[1,0.5]];portConstraint=eastwest;" parent="8" vertex="1">
                    <mxGeometry y="34" width="160" height="26" as="geometry"/>
                </mxCell>
                <mxCell id="12" value="Triangle" style="swimlane;fontStyle=1;align=center;verticalAlign=top;childLayout=stackLayout;horizontal=1;startSize=26;horizontalStack=0;resizeParent=1;resizeParentMax=0;resizeLast=0;collapsible=1;marginBottom=0;" parent="1" vertex="1">
                    <mxGeometry x="380" y="530" width="160" height="60" as="geometry"/>
                </mxCell>
                <mxCell id="14" value="" style="line;strokeWidth=1;fillColor=none;align=left;verticalAlign=middle;spacingTop=-1;spacingLeft=3;spacingRight=3;rotatable=0;labelPosition=right;points=[];portConstraint=eastwest;" parent="12" vertex="1">
                    <mxGeometry y="26" width="160" height="8" as="geometry"/>
                </mxCell>
                <mxCell id="15" value="+ paint(Graphics): void" style="text;strokeColor=none;fillColor=none;align=left;verticalAlign=top;spacingLeft=4;spacingRight=4;overflow=hidden;rotatable=0;points=[[0,0.5],[1,0.5]];portConstraint=eastwest;" parent="12" vertex="1">
                    <mxGeometry y="34" width="160" height="26" as="geometry"/>
                </mxCell>
                <mxCell id="16" value="Square" style="swimlane;fontStyle=1;align=center;verticalAlign=top;childLayout=stackLayout;horizontal=1;startSize=26;horizontalStack=0;resizeParent=1;resizeParentMax=0;resizeLast=0;collapsible=1;marginBottom=0;" parent="1" vertex="1">
                    <mxGeometry x="40" y="530" width="160" height="60" as="geometry"/>
                </mxCell>
                <mxCell id="18" value="" style="line;strokeWidth=1;fillColor=none;align=left;verticalAlign=middle;spacingTop=-1;spacingLeft=3;spacingRight=3;rotatable=0;labelPosition=right;points=[];portConstraint=eastwest;" parent="16" vertex="1">
                    <mxGeometry y="26" width="160" height="8" as="geometry"/>
                </mxCell>
                <mxCell id="19" value="+ paint(Graphics): void" style="text;strokeColor=none;fillColor=none;align=left;verticalAlign=top;spacingLeft=4;spacingRight=4;overflow=hidden;rotatable=0;points=[[0,0.5],[1,0.5]];portConstraint=eastwest;" parent="16" vertex="1">
                    <mxGeometry y="34" width="160" height="26" as="geometry"/>
                </mxCell>
                <mxCell id="21" value="Polygon" style="swimlane;fontStyle=1;align=center;verticalAlign=top;childLayout=stackLayout;horizontal=1;startSize=26;horizontalStack=0;resizeParent=1;resizeParentMax=0;resizeLast=0;collapsible=1;marginBottom=0;" parent="1" vertex="1">
                    <mxGeometry x="210" y="290" width="160" height="128" as="geometry"/>
                </mxCell>
                <mxCell id="22" value="+ centerPoint: Point&#10;+ drawer. DrawPolygons" style="text;strokeColor=none;fillColor=none;align=left;verticalAlign=top;spacingLeft=4;spacingRight=4;overflow=hidden;rotatable=0;points=[[0,0.5],[1,0.5]];portConstraint=eastwest;" parent="21" vertex="1">
                    <mxGeometry y="26" width="160" height="44" as="geometry"/>
                </mxCell>
                <mxCell id="23" value="" style="line;strokeWidth=1;fillColor=none;align=left;verticalAlign=middle;spacingTop=-1;spacingLeft=3;spacingRight=3;rotatable=0;labelPosition=right;points=[];portConstraint=eastwest;" parent="21" vertex="1">
                    <mxGeometry y="70" width="160" height="8" as="geometry"/>
                </mxCell>
                <mxCell id="24" value="+ updateCenter(int, int): void&lt;br&gt;&lt;i&gt;+ paint(Graphics): void&lt;/i&gt;" style="text;align=left;verticalAlign=top;spacingLeft=4;spacingRight=4;overflow=hidden;rotatable=0;points=[[0,0.5],[1,0.5]];portConstraint=eastwest;fontStyle=0;fontColor=#F0F0F0;html=1;" parent="21" vertex="1">
                    <mxGeometry y="78" width="160" height="50" as="geometry"/>
                </mxCell>
                <mxCell id="26" value="Extends" style="endArrow=block;endSize=16;endFill=0;html=1;fontColor=#F0F0F0;exitX=0.5;exitY=0;exitDx=0;exitDy=0;entryX=0.062;entryY=1.036;entryDx=0;entryDy=0;entryPerimeter=0;" parent="1" source="16" target="24" edge="1">
                    <mxGeometry width="160" relative="1" as="geometry">
                        <mxPoint x="110" y="510" as="sourcePoint"/>
                        <mxPoint x="220" y="430" as="targetPoint"/>
                    </mxGeometry>
                </mxCell>
                <mxCell id="27" value="Extends" style="endArrow=block;endSize=16;endFill=0;html=1;fontColor=#F0F0F0;exitX=0.5;exitY=0;exitDx=0;exitDy=0;entryX=0.438;entryY=1.059;entryDx=0;entryDy=0;entryPerimeter=0;" parent="1" target="24" edge="1">
                    <mxGeometry width="160" relative="1" as="geometry">
                        <mxPoint x="280" y="527.05" as="sourcePoint"/>
                        <mxPoint x="444.56000000000006" y="467.99999999999994" as="targetPoint"/>
                    </mxGeometry>
                </mxCell>
                <mxCell id="28" value="Extends" style="endArrow=block;endSize=16;endFill=0;html=1;fontColor=#F0F0F0;exitX=0.5;exitY=0;exitDx=0;exitDy=0;entryX=0.953;entryY=1.032;entryDx=0;entryDy=0;entryPerimeter=0;" parent="1" target="24" edge="1">
                    <mxGeometry width="160" relative="1" as="geometry">
                        <mxPoint x="460" y="527.05" as="sourcePoint"/>
                        <mxPoint x="280" y="468" as="targetPoint"/>
                    </mxGeometry>
                </mxCell>
                <mxCell id="29" value="" style="endArrow=open;endFill=1;endSize=12;html=1;fontColor=#F0F0F0;exitX=0.471;exitY=1.027;exitDx=0;exitDy=0;exitPerimeter=0;entryX=0.5;entryY=0;entryDx=0;entryDy=0;" parent="1" source="7" target="21" edge="1">
                    <mxGeometry width="160" relative="1" as="geometry">
                        <mxPoint x="260" y="250" as="sourcePoint"/>
                        <mxPoint x="285" y="330" as="targetPoint"/>
                    </mxGeometry>
                </mxCell>
                <mxCell id="31" value="JComponent" style="swimlane;fontStyle=1;align=center;verticalAlign=top;childLayout=stackLayout;horizontal=1;startSize=26;horizontalStack=0;resizeParent=1;resizeParentMax=0;resizeLast=0;collapsible=1;marginBottom=0;" parent="1" vertex="1">
                    <mxGeometry x="520" y="50" width="160" height="60" as="geometry"/>
                </mxCell>
                <mxCell id="33" value="" style="line;strokeWidth=1;fillColor=none;align=left;verticalAlign=middle;spacingTop=-1;spacingLeft=3;spacingRight=3;rotatable=0;labelPosition=right;points=[];portConstraint=eastwest;" parent="31" vertex="1">
                    <mxGeometry y="26" width="160" height="8" as="geometry"/>
                </mxCell>
                <mxCell id="34" value="+paint(Graphics): void" style="text;strokeColor=none;fillColor=none;align=left;verticalAlign=top;spacingLeft=4;spacingRight=4;overflow=hidden;rotatable=0;points=[[0,0.5],[1,0.5]];portConstraint=eastwest;" parent="31" vertex="1">
                    <mxGeometry y="34" width="160" height="26" as="geometry"/>
                </mxCell>
                <mxCell id="35" value="Extends" style="endArrow=block;endSize=16;endFill=0;html=1;entryX=0;entryY=1;entryDx=0;entryDy=0;exitX=1;exitY=0;exitDx=0;exitDy=0;" parent="1" source="21" target="31" edge="1">
                    <mxGeometry width="160" relative="1" as="geometry">
                        <mxPoint x="350" y="400" as="sourcePoint"/>
                        <mxPoint x="510" y="400" as="targetPoint"/>
                    </mxGeometry>
                </mxCell>
                <mxCell id="36" value="Extends" style="endArrow=block;endSize=16;endFill=0;html=1;exitX=1;exitY=0.5;exitDx=0;exitDy=0;entryX=-0.009;entryY=0.107;entryDx=0;entryDy=0;entryPerimeter=0;" parent="1" source="4" target="34" edge="1">
                    <mxGeometry width="160" relative="1" as="geometry">
                        <mxPoint x="280" y="250" as="sourcePoint"/>
                        <mxPoint x="440" y="250" as="targetPoint"/>
                    </mxGeometry>
                </mxCell>
                <mxCell id="7" value="+ update(): void&#10;+ paint(Graphics): void" style="text;strokeColor=#36393d;fillColor=#FFFFFF;align=left;verticalAlign=top;spacingLeft=4;spacingRight=4;overflow=hidden;rotatable=0;points=[[0,0.5],[1,0.5]];portConstraint=eastwest;fontColor=#000000;" parent="1" vertex="1">
                    <mxGeometry x="210" y="140" width="160" height="50" as="geometry"/>
                </mxCell>
            </root>
        </mxGraphModel>
    </diagram>
    <diagram id="pi7KsO2V2gXSjVSOG3jq" name="second_version">
        <mxGraphModel dx="865" dy="413" grid="1" gridSize="10" guides="1" tooltips="1" connect="1" arrows="1" fold="1" page="1" pageScale="1" pageWidth="850" pageHeight="1100" math="0" shadow="0">
            <root>
                <mxCell id="pliiHMQViKboExmXt9XP-0"/>
                <mxCell id="pliiHMQViKboExmXt9XP-1" parent="pliiHMQViKboExmXt9XP-0"/>
                <mxCell id="bHiaFD-n5yg1FwcKWUV_-0" value="&lt;i&gt;DrawPolygons&lt;/i&gt;" style="swimlane;fontStyle=1;align=center;verticalAlign=top;childLayout=stackLayout;horizontal=1;startSize=26;horizontalStack=0;resizeParent=1;resizeParentMax=0;resizeLast=0;collapsible=1;marginBottom=0;fillColor=#FFFFFF;strokeColor=#36393d;fontColor=#000000;html=1;" parent="pliiHMQViKboExmXt9XP-1" vertex="1">
                    <mxGeometry x="240" y="40" width="160" height="100" as="geometry">
                        <mxRectangle x="240" y="40" width="120" height="26" as="alternateBounds"/>
                    </mxGeometry>
                </mxCell>
                <mxCell id="bHiaFD-n5yg1FwcKWUV_-1" value="+ polygons: Paintable []&#10;+ direction: boolean&#10;+ ticker: int&#10;+ frame: JFrame" style="text;align=left;verticalAlign=top;spacingLeft=4;spacingRight=4;overflow=hidden;rotatable=0;points=[[0,0.5],[1,0.5]];portConstraint=eastwest;fillColor=#FFFFFF;strokeColor=#36393d;fontColor=#000000;" parent="bHiaFD-n5yg1FwcKWUV_-0" vertex="1">
                    <mxGeometry y="26" width="160" height="74" as="geometry"/>
                </mxCell>
                <mxCell id="waLEjZSi49W-GcZSyurg-11" style="edgeStyle=none;html=1;exitX=0;exitY=0.25;exitDx=0;exitDy=0;fontColor=#F0F0F0;entryX=0;entryY=0.25;entryDx=0;entryDy=0;" edge="1" parent="pliiHMQViKboExmXt9XP-1" source="bHiaFD-n5yg1FwcKWUV_-2" target="bHiaFD-n5yg1FwcKWUV_-2">
                    <mxGeometry relative="1" as="geometry">
                        <mxPoint x="90" y="538" as="targetPoint"/>
                    </mxGeometry>
                </mxCell>
                <mxCell id="bHiaFD-n5yg1FwcKWUV_-2" value="Rectangle" style="swimlane;fontStyle=1;align=center;verticalAlign=top;childLayout=stackLayout;horizontal=1;startSize=30;horizontalStack=0;resizeParent=1;resizeParentMax=0;resizeLast=0;collapsible=1;marginBottom=0;fillColor=#FFFFFF;fontColor=#000000;" parent="pliiHMQViKboExmXt9XP-1" vertex="1">
                    <mxGeometry x="120" y="520" width="190" height="150" as="geometry">
                        <mxRectangle x="120" y="520" width="90" height="26" as="alternateBounds"/>
                    </mxGeometry>
                </mxCell>
                <mxCell id="bHiaFD-n5yg1FwcKWUV_-3" value="" style="line;strokeWidth=1;fillColor=none;align=left;verticalAlign=middle;spacingTop=-1;spacingLeft=3;spacingRight=3;rotatable=0;labelPosition=right;points=[];portConstraint=eastwest;" parent="bHiaFD-n5yg1FwcKWUV_-2" vertex="1">
                    <mxGeometry y="30" width="190" height="70" as="geometry"/>
                </mxCell>
                <mxCell id="bHiaFD-n5yg1FwcKWUV_-4" value="+ paint(Graphics): void&#10;+ makeSquare(int) : Rectangle" style="text;strokeColor=none;fillColor=#FFFFFF;align=left;verticalAlign=top;spacingLeft=4;spacingRight=4;overflow=hidden;rotatable=0;points=[[0,0.5],[1,0.5]];portConstraint=eastwest;fontColor=#000000;" parent="bHiaFD-n5yg1FwcKWUV_-2" vertex="1">
                    <mxGeometry y="100" width="190" height="50" as="geometry"/>
                </mxCell>
                <mxCell id="bHiaFD-n5yg1FwcKWUV_-5" value="Triangle" style="swimlane;fontStyle=1;align=center;verticalAlign=top;childLayout=stackLayout;horizontal=1;startSize=26;horizontalStack=0;resizeParent=1;resizeParentMax=0;resizeLast=0;collapsible=1;marginBottom=0;fillColor=#FFFFFF;fontColor=#000000;" parent="pliiHMQViKboExmXt9XP-1" vertex="1">
                    <mxGeometry x="360" y="520" width="160" height="60" as="geometry">
                        <mxRectangle x="360" y="520" width="80" height="26" as="alternateBounds"/>
                    </mxGeometry>
                </mxCell>
                <mxCell id="bHiaFD-n5yg1FwcKWUV_-6" value="" style="line;strokeWidth=1;fillColor=#FFFFFF;align=left;verticalAlign=middle;spacingTop=-1;spacingLeft=3;spacingRight=3;rotatable=0;labelPosition=right;points=[];portConstraint=eastwest;" parent="bHiaFD-n5yg1FwcKWUV_-5" vertex="1">
                    <mxGeometry y="26" width="160" height="8" as="geometry"/>
                </mxCell>
                <mxCell id="bHiaFD-n5yg1FwcKWUV_-7" value="+ paint(Graphics): void" style="text;strokeColor=none;fillColor=#FFFFFF;align=left;verticalAlign=top;spacingLeft=4;spacingRight=4;overflow=hidden;rotatable=0;points=[[0,0.5],[1,0.5]];portConstraint=eastwest;fontColor=#000000;" parent="bHiaFD-n5yg1FwcKWUV_-5" vertex="1">
                    <mxGeometry y="34" width="160" height="26" as="geometry"/>
                </mxCell>
                <mxCell id="bHiaFD-n5yg1FwcKWUV_-11" value="PolygonHelper" style="swimlane;fontStyle=1;align=center;verticalAlign=top;childLayout=stackLayout;horizontal=1;startSize=26;horizontalStack=0;resizeParent=1;resizeParentMax=0;resizeLast=0;collapsible=1;marginBottom=0;fillColor=#FFFFFF;fontColor=#000000;" parent="pliiHMQViKboExmXt9XP-1" vertex="1">
                    <mxGeometry x="70" y="290" width="160" height="120" as="geometry">
                        <mxRectangle x="240" y="280" width="80" height="26" as="alternateBounds"/>
                    </mxGeometry>
                </mxCell>
                <mxCell id="bHiaFD-n5yg1FwcKWUV_-12" value="- centerPoint: Point&#10;- drawer. DrawPolygons" style="text;strokeColor=#666666;fillColor=#FFFFFF;align=left;verticalAlign=top;spacingLeft=4;spacingRight=4;overflow=hidden;rotatable=0;points=[[0,0.5],[1,0.5]];portConstraint=eastwest;fontColor=#333333;" parent="bHiaFD-n5yg1FwcKWUV_-11" vertex="1">
                    <mxGeometry y="26" width="160" height="44" as="geometry"/>
                </mxCell>
                <mxCell id="bHiaFD-n5yg1FwcKWUV_-14" value="+ updateCenter(int, int): void" style="text;align=left;verticalAlign=top;spacingLeft=4;spacingRight=4;overflow=hidden;rotatable=0;points=[[0,0.5],[1,0.5]];portConstraint=eastwest;fontStyle=0;fontColor=#000000;html=1;fillColor=#FFFFFF;" parent="bHiaFD-n5yg1FwcKWUV_-11" vertex="1">
                    <mxGeometry y="70" width="160" height="50" as="geometry"/>
                </mxCell>
                <mxCell id="bHiaFD-n5yg1FwcKWUV_-16" value="Extends" style="endArrow=block;endSize=16;endFill=0;html=1;fontColor=#F0F0F0;entryX=0.509;entryY=0.976;entryDx=0;entryDy=0;exitX=0.5;exitY=0;exitDx=0;exitDy=0;entryPerimeter=0;" edge="1" parent="pliiHMQViKboExmXt9XP-1" source="bHiaFD-n5yg1FwcKWUV_-2" target="bHiaFD-n5yg1FwcKWUV_-21">
                    <mxGeometry width="160" relative="1" as="geometry">
                        <mxPoint x="190" y="527" as="sourcePoint"/>
                        <mxPoint x="444.56000000000006" y="467.99999999999994" as="targetPoint"/>
                    </mxGeometry>
                </mxCell>
                <mxCell id="bHiaFD-n5yg1FwcKWUV_-17" value="Extends" style="endArrow=block;endSize=16;endFill=0;html=1;fontColor=#F0F0F0;exitX=0.5;exitY=0;exitDx=0;exitDy=0;" edge="1" parent="pliiHMQViKboExmXt9XP-1" source="bHiaFD-n5yg1FwcKWUV_-5">
                    <mxGeometry width="160" relative="1" as="geometry">
                        <mxPoint x="410" y="527" as="sourcePoint"/>
                        <mxPoint x="580" y="100" as="targetPoint"/>
                    </mxGeometry>
                </mxCell>
                <mxCell id="bHiaFD-n5yg1FwcKWUV_-19" value="JComponent" style="swimlane;fontStyle=1;align=center;verticalAlign=top;childLayout=stackLayout;horizontal=1;startSize=26;horizontalStack=0;resizeParent=1;resizeParentMax=0;resizeLast=0;collapsible=1;marginBottom=0;fillColor=#FFFFFF;fontColor=#000000;" parent="pliiHMQViKboExmXt9XP-1" vertex="1">
                    <mxGeometry x="520" y="40" width="160" height="60" as="geometry">
                        <mxRectangle x="520" y="40" width="110" height="26" as="alternateBounds"/>
                    </mxGeometry>
                </mxCell>
                <mxCell id="bHiaFD-n5yg1FwcKWUV_-20" value="" style="line;strokeWidth=1;fillColor=none;align=left;verticalAlign=middle;spacingTop=-1;spacingLeft=3;spacingRight=3;rotatable=0;labelPosition=right;points=[];portConstraint=eastwest;" parent="bHiaFD-n5yg1FwcKWUV_-19" vertex="1">
                    <mxGeometry y="26" width="160" height="8" as="geometry"/>
                </mxCell>
                <mxCell id="bHiaFD-n5yg1FwcKWUV_-21" value="+paint(Graphics): void" style="text;strokeColor=#666666;fillColor=#FFFFFF;align=left;verticalAlign=top;spacingLeft=4;spacingRight=4;overflow=hidden;rotatable=0;points=[[0,0.5],[1,0.5]];portConstraint=eastwest;fontColor=#333333;" parent="bHiaFD-n5yg1FwcKWUV_-19" vertex="1">
                    <mxGeometry y="34" width="160" height="26" as="geometry"/>
                </mxCell>
                <mxCell id="bHiaFD-n5yg1FwcKWUV_-23" value="Extends" style="endArrow=block;endSize=16;endFill=0;html=1;exitX=1;exitY=0.25;exitDx=0;exitDy=0;entryX=0;entryY=0.5;entryDx=0;entryDy=0;" parent="pliiHMQViKboExmXt9XP-1" source="bHiaFD-n5yg1FwcKWUV_-0" target="bHiaFD-n5yg1FwcKWUV_-19" edge="1">
                    <mxGeometry width="160" relative="1" as="geometry">
                        <mxPoint x="280" y="250" as="sourcePoint"/>
                        <mxPoint x="440" y="250" as="targetPoint"/>
                    </mxGeometry>
                </mxCell>
                <mxCell id="bHiaFD-n5yg1FwcKWUV_-24" value="+ update(): void&#10;+ paint(Graphics): void" style="text;strokeColor=#36393d;fillColor=#FFFFFF;align=left;verticalAlign=top;spacingLeft=4;spacingRight=4;overflow=hidden;rotatable=0;points=[[0,0.5],[1,0.5]];portConstraint=eastwest;fontColor=#000000;" parent="pliiHMQViKboExmXt9XP-1" vertex="1">
                    <mxGeometry x="240" y="140" width="160" height="50" as="geometry"/>
                </mxCell>
                <mxCell id="bHiaFD-n5yg1FwcKWUV_-25" value="«interface»&lt;br&gt;&lt;b&gt;Paintable&lt;/b&gt;" style="html=1;fontColor=#000000;strokeColor=#FFFFFF;fillColor=#FFFFFF;" parent="pliiHMQViKboExmXt9XP-1" vertex="1">
                    <mxGeometry x="250" y="250" width="110" height="50" as="geometry"/>
                </mxCell>
                <mxCell id="bHiaFD-n5yg1FwcKWUV_-27" value="" style="endArrow=block;dashed=1;endFill=0;endSize=12;html=1;exitX=0.25;exitY=0;exitDx=0;exitDy=0;entryX=0.75;entryY=1;entryDx=0;entryDy=0;" edge="1" parent="pliiHMQViKboExmXt9XP-1" source="bHiaFD-n5yg1FwcKWUV_-5" target="bHiaFD-n5yg1FwcKWUV_-25">
                    <mxGeometry width="160" relative="1" as="geometry">
                        <mxPoint x="420" y="290" as="sourcePoint"/>
                        <mxPoint x="365" y="460" as="targetPoint"/>
                    </mxGeometry>
                </mxCell>
                <mxCell id="waLEjZSi49W-GcZSyurg-6" value="" style="endArrow=block;dashed=1;endFill=0;endSize=12;html=1;exitX=0.25;exitY=0;exitDx=0;exitDy=0;entryX=0.5;entryY=1;entryDx=0;entryDy=0;" edge="1" parent="pliiHMQViKboExmXt9XP-1" target="bHiaFD-n5yg1FwcKWUV_-25">
                    <mxGeometry width="160" relative="1" as="geometry">
                        <mxPoint x="290" y="520" as="sourcePoint"/>
                        <mxPoint x="410.0000000000002" y="292.5" as="targetPoint"/>
                    </mxGeometry>
                </mxCell>
                <mxCell id="waLEjZSi49W-GcZSyurg-7" value="" style="endArrow=open;endFill=1;endSize=12;html=1;fontColor=#F0F0F0;entryX=0.25;entryY=0;entryDx=0;entryDy=0;" edge="1" parent="pliiHMQViKboExmXt9XP-1" target="bHiaFD-n5yg1FwcKWUV_-25">
                    <mxGeometry width="160" relative="1" as="geometry">
                        <mxPoint x="286" y="190" as="sourcePoint"/>
                        <mxPoint x="380" y="270" as="targetPoint"/>
                    </mxGeometry>
                </mxCell>
                <mxCell id="waLEjZSi49W-GcZSyurg-8" value="" style="endArrow=open;endFill=1;endSize=12;html=1;fontColor=#F0F0F0;entryX=0.25;entryY=1;entryDx=0;entryDy=0;exitX=0.25;exitY=0;exitDx=0;exitDy=0;" edge="1" parent="pliiHMQViKboExmXt9XP-1" source="bHiaFD-n5yg1FwcKWUV_-2" target="bHiaFD-n5yg1FwcKWUV_-11">
                    <mxGeometry width="160" relative="1" as="geometry">
                        <mxPoint x="206" y="420" as="sourcePoint"/>
                        <mxPoint x="70" y="520" as="targetPoint"/>
                    </mxGeometry>
                </mxCell>
                <mxCell id="waLEjZSi49W-GcZSyurg-9" value="" style="endArrow=open;endFill=1;endSize=12;html=1;fontColor=#F0F0F0;entryX=0.7;entryY=1.004;entryDx=0;entryDy=0;entryPerimeter=0;exitX=0.422;exitY=-0.03;exitDx=0;exitDy=0;exitPerimeter=0;" edge="1" parent="pliiHMQViKboExmXt9XP-1" source="bHiaFD-n5yg1FwcKWUV_-5" target="bHiaFD-n5yg1FwcKWUV_-14">
                    <mxGeometry width="160" relative="1" as="geometry">
                        <mxPoint x="440" y="440" as="sourcePoint"/>
                        <mxPoint x="230" y="370" as="targetPoint"/>
                        <Array as="points">
                            <mxPoint x="350" y="490"/>
                            <mxPoint x="260" y="440"/>
                        </Array>
                    </mxGeometry>
                </mxCell>
                <mxCell id="P_zf-Mc1I2hu5xzfQCe7-2" value="t" style="edgeLabel;html=1;align=center;verticalAlign=middle;resizable=0;points=[];fontColor=#000000;" vertex="1" connectable="0" parent="waLEjZSi49W-GcZSyurg-9">
                    <mxGeometry x="0.0918" y="3" relative="1" as="geometry">
                        <mxPoint y="1" as="offset"/>
                    </mxGeometry>
                </mxCell>
                <mxCell id="waLEjZSi49W-GcZSyurg-13" value="polygonHelp: polygonHelper" style="text;html=1;align=center;verticalAlign=middle;resizable=0;points=[];autosize=1;strokeColor=none;fillColor=none;fontColor=#F0F0F0;" vertex="1" parent="pliiHMQViKboExmXt9XP-1">
                    <mxGeometry x="115" y="570" width="170" height="20" as="geometry"/>
                </mxCell>
            </root>
        </mxGraphModel>
    </diagram>
    <diagram id="95ARrsfJPdTgveE7Jn6L" name="Secret Project- H">
        <mxGraphModel dx="865" dy="413" grid="1" gridSize="10" guides="1" tooltips="1" connect="1" arrows="1" fold="1" page="1" pageScale="1" pageWidth="850" pageHeight="1100" math="0" shadow="0">
            <root>
                <mxCell id="hbI198ea1xytPE5_wH5B-0"/>
                <mxCell id="hbI198ea1xytPE5_wH5B-1" parent="hbI198ea1xytPE5_wH5B-0"/>
                <mxCell id="hbI198ea1xytPE5_wH5B-2" value="&lt;span style=&quot;white-space: pre&quot;&gt;&#9;&lt;/span&gt;&lt;span style=&quot;white-space: pre&quot;&gt;&#9;&lt;/span&gt;&lt;span style=&quot;white-space: pre&quot;&gt;&#9;&lt;/span&gt;&lt;span style=&quot;white-space: pre&quot;&gt;&#9;&lt;/span&gt;&lt;br&gt;&lt;br&gt;&lt;br&gt;&lt;b style=&quot;background-color: rgb(248 , 255 , 48)&quot;&gt;&lt;font color=&quot;#000000&quot; style=&quot;line-height: 1.1&quot;&gt;&lt;span style=&quot;white-space: pre&quot;&gt;&#9;&lt;/span&gt;&lt;span style=&quot;white-space: pre&quot;&gt;&#9;&lt;/span&gt;&lt;span style=&quot;white-space: pre&quot;&gt;&#9;&lt;/span&gt;&lt;span style=&quot;white-space: pre&quot;&gt;&#9;&lt;/span&gt;&lt;span style=&quot;white-space: pre&quot;&gt;&#9;&lt;/span&gt;&lt;span style=&quot;white-space: pre&quot;&gt;&#9;&lt;/span&gt;Hugo Hugosson&lt;/font&gt;&lt;/b&gt;" style="shape=actor;whiteSpace=wrap;html=1;fillColor=#f5f5f5;strokeColor=#666666;fontColor=#333333;" parent="hbI198ea1xytPE5_wH5B-1" vertex="1">
                    <mxGeometry x="220" y="640" width="330" height="250" as="geometry"/>
                </mxCell>
                <mxCell id="hbI198ea1xytPE5_wH5B-3" value="" style="ellipse;whiteSpace=wrap;html=1;" parent="hbI198ea1xytPE5_wH5B-1" vertex="1">
                    <mxGeometry x="340" y="660" width="40" height="30" as="geometry"/>
                </mxCell>
                <mxCell id="hbI198ea1xytPE5_wH5B-4" value="" style="ellipse;whiteSpace=wrap;html=1;" parent="hbI198ea1xytPE5_wH5B-1" vertex="1">
                    <mxGeometry x="400" y="660" width="40" height="30" as="geometry"/>
                </mxCell>
                <mxCell id="hbI198ea1xytPE5_wH5B-5" value="" style="ellipse;whiteSpace=wrap;html=1;fillColor=#a20025;fontColor=#ffffff;strokeColor=#6F0000;" parent="hbI198ea1xytPE5_wH5B-1" vertex="1">
                    <mxGeometry x="415" y="670" width="10" height="10" as="geometry"/>
                </mxCell>
                <mxCell id="hbI198ea1xytPE5_wH5B-6" value="" style="ellipse;whiteSpace=wrap;html=1;fillColor=#008a00;fontColor=#ffffff;strokeColor=#005700;" parent="hbI198ea1xytPE5_wH5B-1" vertex="1">
                    <mxGeometry x="355" y="670" width="10" height="10" as="geometry"/>
                </mxCell>
                <mxCell id="hbI198ea1xytPE5_wH5B-7" value="" style="shape=dataStorage;whiteSpace=wrap;html=1;fixedSize=1;rotation=-90;" parent="hbI198ea1xytPE5_wH5B-1" vertex="1">
                    <mxGeometry x="377.5" y="672.5" width="35" height="80" as="geometry"/>
                </mxCell>
                <mxCell id="hbI198ea1xytPE5_wH5B-8" style="edgeStyle=none;html=1;" parent="hbI198ea1xytPE5_wH5B-1" source="hbI198ea1xytPE5_wH5B-7" target="hbI198ea1xytPE5_wH5B-7" edge="1">
                    <mxGeometry relative="1" as="geometry">
                        <Array as="points">
                            <mxPoint x="470" y="730"/>
                        </Array>
                    </mxGeometry>
                </mxCell>
                <mxCell id="hbI198ea1xytPE5_wH5B-9" value="" style="shape=xor;whiteSpace=wrap;html=1;labelBackgroundColor=#F8FF30;fontColor=#ffffff;rotation=-90;fillColor=#0050ef;strokeColor=#001DBC;" parent="hbI198ea1xytPE5_wH5B-1" vertex="1">
                    <mxGeometry x="375" y="570" width="20" height="150" as="geometry"/>
                </mxCell>
                <mxCell id="hbI198ea1xytPE5_wH5B-10" value="Welcome to mcDonalds!!" style="shape=callout;whiteSpace=wrap;html=1;perimeter=calloutPerimeter;labelBackgroundColor=#F8FF30;fontColor=#000000;rotation=15;" parent="hbI198ea1xytPE5_wH5B-1" vertex="1">
                    <mxGeometry x="430" y="592.5" width="120" height="80" as="geometry"/>
                </mxCell>
            </root>
        </mxGraphModel>
    </diagram>
</mxfile>